<?xml version="1.0" encoding="UTF-8"?>
<svg version="1.1" xmlns="http://www.w3.org/2000/svg" width="1138" height="219">
<path d="M0 0 C0.8197934 -0.0049649 1.63958679 -0.00992981 2.48422241 -0.01504517 C5.21678496 -0.02973114 7.94928909 -0.03648625 10.68188477 -0.04199219 C12.58789572 -0.04774692 14.49390667 -0.05350461 16.3999176 -0.05926514 C20.41423818 -0.06979912 24.42853863 -0.07562326 28.44287109 -0.07910156 C33.53838861 -0.0845326 38.63363157 -0.10843264 43.72906399 -0.13707352 C47.67841807 -0.15590461 51.62770943 -0.16091666 55.57710457 -0.16243744 C57.45180798 -0.16542849 59.32651127 -0.17333386 61.20116997 -0.18662262 C81.90154453 -0.32264719 104.31750532 0.92572523 120.15454102 16.04003906 C128.62245746 25.20763504 131.70067652 35.00154526 131.49438477 47.40332031 C130.68136568 57.30362864 125.51808595 65.50658751 118.09594727 71.98535156 C114.92710797 74.42246633 111.79746858 76.43937965 108.18579102 78.16113281 C111.18600891 80.16127808 114.22265874 81.71591327 117.43579102 83.34863281 C127.70168489 88.81120554 132.91037205 95.27172678 137.18579102 106.16113281 C139.74275272 118.2989992 137.89434887 130.60980882 131.18579102 141.16113281 C122.74422019 153.14122511 109.76959467 158.78603997 95.67895508 161.25219727 C85.89117425 162.69006616 76.04097568 162.42866135 66.17016602 162.39160156 C64.06121855 162.39040743 61.95227054 162.38995709 59.84332275 162.39021301 C55.45272429 162.38865839 51.06220854 162.38044089 46.67163086 162.36694336 C41.032315 162.34982875 35.39308865 162.34613314 29.75374985 162.34688854 C25.41307719 162.34661754 21.07242425 162.34114975 16.73175812 162.3338871 C14.65043537 162.33069889 12.56911039 162.32873267 10.48778534 162.32799339 C7.59639103 162.32583855 4.70509424 162.31711676 1.8137207 162.30639648 C0.9494194 162.30684967 0.0851181 162.30730286 -0.80537415 162.30776978 C-6.69972225 162.27561954 -6.69972225 162.27561954 -7.81420898 161.16113281 C-7.85501681 159.16154918 -7.85675255 157.16068027 -7.81420898 155.16113281 C-6.74493164 155.10505859 -6.74493164 155.10505859 -5.65405273 155.04785156 C2.69821402 154.51436906 2.69821402 154.51436906 10.18579102 151.16113281 C16.72857504 139.16602877 14.33340475 122.34927089 14.31860352 109.07910156 C14.31927863 106.93500253 14.32025039 104.79090358 14.32150269 102.64680481 C14.32297082 98.16776801 14.32085429 93.68875125 14.31616211 89.2097168 C14.31047579 83.50786072 14.31374255 77.80605184 14.31973457 72.1041975 C14.32337302 67.6797501 14.32218643 63.25531362 14.31960678 58.83086586 C14.31894603 56.73041084 14.31973567 54.62995477 14.32208633 52.52950096 C15.72774495 31.04010164 15.72774495 31.04010164 10.18579102 11.16113281 C5.17158854 7.40048095 -0.75679127 7.47370419 -6.81420898 7.16113281 C-7.47420898 5.18113281 -8.13420898 3.20113281 -8.81420898 1.16113281 C-6.80897215 -0.84410402 -2.7483571 0.00393055 0 0 Z M40.18579102 12.16113281 C40.18579102 31.96113281 40.18579102 51.76113281 40.18579102 72.16113281 C46.37329102 72.24363281 52.56079102 72.32613281 58.93579102 72.41113281 C61.82603027 72.46575684 61.82603027 72.46575684 64.7746582 72.52148438 C75.69816804 72.6411127 84.93168949 71.86726705 94.56079102 66.16113281 C101.98892048 57.671842 104.34867176 49.20314122 103.70141602 38.16113281 C102.87806879 30.10894798 98.94673959 24.04148128 93.07250977 18.62597656 C79.4295374 8.03360672 56.37990979 8.11260312 40.18579102 12.16113281 Z M40.18579102 84.16113281 C40.0917396 86.15545011 40.06835852 88.15312824 40.07226562 90.1496582 C40.07234116 91.4309108 40.07241669 92.71216339 40.07249451 94.03224182 C40.07760192 95.44109129 40.08281793 96.84994037 40.08813477 98.25878906 C40.08999899 99.69225516 40.09142287 101.12572189 40.09242249 102.55918884 C40.09624729 106.33873238 40.10607725 110.11823771 40.11712646 113.89776611 C40.12734139 117.7518258 40.13192028 121.60589163 40.13696289 125.45996094 C40.14769956 133.02703568 40.16477552 140.5940789 40.18579102 148.16113281 C49.5070521 149.8480524 49.5070521 149.8480524 58.94750977 150.42675781 C60.08639648 150.42933594 61.2252832 150.43191406 62.39868164 150.43457031 C63.54530273 150.42683594 64.69192383 150.41910156 65.87329102 150.41113281 C67.03151367 150.41886719 68.18973633 150.42660156 69.38305664 150.43457031 C81.28837511 150.40752814 90.98299373 148.75865302 100.04516602 140.45800781 C105.94443867 133.97464875 108.1611146 126.82255387 108.18579102 118.16113281 C107.57685674 108.02105344 104.37676433 100.84196848 96.93579102 93.91113281 C88.78870863 87.4650896 79.55501029 84.16113281 69.18579102 84.16113281 C70.11448609 88.49504318 71.07520899 92.79952877 72.24438477 97.07519531 C72.4296875 97.76806641 72.61499023 98.4609375 72.8059082 99.17480469 C73.17725832 100.55666174 73.55903561 101.93576905 73.95239258 103.31152344 C75.21495424 108.06662579 75.14892603 111.43747702 74.18579102 116.16113281 C73.52579102 116.16113281 72.86579102 116.16113281 72.18579102 116.16113281 C70.37338354 118.17721448 70.37338354 118.17721448 68.56079102 120.66113281 C67.92915039 121.49644531 67.29750977 122.33175781 66.64672852 123.19238281 C65.92356445 124.16691406 65.92356445 124.16691406 65.18579102 125.16113281 C61.03055642 124.59586224 58.52514795 122.37152311 55.37329102 119.72363281 C54.3768457 118.92054687 53.38040039 118.11746094 52.35375977 117.29003906 C49.62077192 113.34567282 49.88048917 111.45737117 50.61572266 106.85668945 C51.55827361 102.39985646 52.61911562 97.99539123 53.81079102 93.59863281 C54.28738098 91.82789831 54.75903305 90.05582459 55.22485352 88.28222656 C55.43319824 87.51322021 55.64154297 86.74421387 55.85620117 85.9519043 C55.96496582 85.36094971 56.07373047 84.76999512 56.18579102 84.16113281 C55.05266346 82.80252388 55.05266346 82.80252388 52.06079102 83.02832031 C50.78204102 83.03089844 49.50329102 83.03347656 48.18579102 83.03613281 C46.90704102 83.03355469 45.62829102 83.03097656 44.31079102 83.02832031 C41.31891857 82.80252388 41.31891857 82.80252388 40.18579102 84.16113281 Z " fill="#FEFEFE" transform="translate(554.814208984375,5.8388671875)"/>
<path d="M0 0 C21.45 0 42.9 0 65 0 C65.495 2.475 65.495 2.475 66 5 C61.4013241 6.36981835 56.80452078 7.52691472 52.11328125 8.53515625 C50.06468426 8.98577185 48.03238049 9.4815824 46 10 C45.25741679 14.0094888 44.8580727 17.83818367 44.79467773 21.91357422 C44.77473251 23.05430389 44.75478729 24.19503357 44.73423767 25.37033081 C44.71752518 26.58616852 44.70081268 27.80200623 44.68359375 29.0546875 C44.66281265 30.31137238 44.64203156 31.56805725 44.62062073 32.86282349 C44.56645388 36.18685701 44.51616207 39.51090257 44.46777344 42.83502197 C44.41733504 46.23381717 44.36176617 49.63252816 44.30664062 53.03125 C44.19971743 59.68743272 44.09790536 66.34367886 44 73 C47.21630141 71.47396585 49.28769299 69.90199229 51.75 67.3125 C55.65456516 63.30689249 59.76352406 59.64719169 64 56 C65.5657268 54.62867552 67.12817944 53.2536046 68.6875 51.875 C69.39261719 51.25367188 70.09773438 50.63234375 70.82421875 49.9921875 C73.29334754 47.73140531 75.64091104 45.37579639 78 43 C79.33105103 41.69040922 80.66317977 40.38191335 81.99609375 39.07421875 C83.47667612 37.61209422 84.9571421 36.14985181 86.4375 34.6875 C87.17548828 33.96626953 87.91347656 33.24503906 88.67382812 32.50195312 C98.62861519 22.87302707 98.62861519 22.87302707 102 10 C102 9.34 102 8.68 102 8 C101.14535156 7.93941406 100.29070312 7.87882813 99.41015625 7.81640625 C97.75306641 7.69072266 97.75306641 7.69072266 96.0625 7.5625 C94.96035156 7.48128906 93.85820313 7.40007813 92.72265625 7.31640625 C90 7 90 7 89 6 C88.875 3.5 88.875 3.5 89 1 C90 0 90 0 92.36012268 -0.12025452 C93.40603073 -0.11803391 94.45193878 -0.11581329 95.52954102 -0.11352539 C96.71068985 -0.11344986 97.89183868 -0.11337433 99.10877991 -0.11329651 C100.3941716 -0.10813522 101.67956329 -0.10297394 103.00390625 -0.09765625 C104.9661338 -0.09553383 104.9661338 -0.09553383 106.96800232 -0.09336853 C110.45162859 -0.0895441 113.93521339 -0.07971446 117.41882324 -0.06866455 C120.97126708 -0.05844882 124.52371759 -0.05387056 128.07617188 -0.04882812 C135.05079832 -0.03809212 142.02539717 -0.0210166 149 0 C149.33 1.65 149.66 3.3 150 5 C146.94441208 6.37994293 144.09281441 7.18001629 140.8125 7.75 C124.4926381 11.26255306 111.66769877 27.10755597 100.5 38.5 C97.80778509 41.24527592 95.10906713 43.98391663 92.40625 46.71875 C91.4844696 47.66542542 91.4844696 47.66542542 90.54406738 48.63122559 C89.06691876 50.12554914 87.53802637 51.56841144 86 53 C85.34 53 84.68 53 84 53 C83.65388672 53.83724609 83.65388672 53.83724609 83.30078125 54.69140625 C81.65466491 57.61289201 79.58926868 59.60054666 77.1875 61.9375 C76.33542969 62.77152344 75.48335938 63.60554688 74.60546875 64.46484375 C73.74566406 65.30144531 72.88585937 66.13804688 72 67 C70.33102653 68.66435667 68.66367714 70.33034916 67 72 C67.44730469 72.44730469 67.89460938 72.89460938 68.35546875 73.35546875 C79 84 79 84 80.79296875 85.828125 C81.73076172 86.77945313 81.73076172 86.77945313 82.6875 87.75 C83.26886719 88.34296875 83.85023437 88.9359375 84.44921875 89.546875 C85.95513974 91.09641804 85.95513974 91.09641804 88 92 C88 92.66 88 93.32 88 94 C88.556875 94.20625 89.11375 94.4125 89.6875 94.625 C92.2531704 96.15053375 93.69852965 97.99092071 95.53434753 100.30979919 C97.1307831 102.15081999 98.8389521 103.65906222 100.70043945 105.23071289 C104.86811178 108.83109716 108.71359319 112.66693866 112.54296875 116.62109375 C113.96097113 118.06636123 115.37961123 119.51100325 116.79882812 120.95507812 C118.99208182 123.19137036 121.18127141 125.43106419 123.35961914 127.68188477 C136.59519798 141.33673752 150.10408449 153.49842147 170 155 C170.38133299 156.9914056 170.71325582 158.99279077 171 161 C169.31767661 162.68232339 167.24576976 162.12575392 165.00016785 162.13552856 C164.2853273 162.13350433 163.57048676 162.1314801 162.83398438 162.12939453 C162.08441971 162.13114685 161.33485504 162.13289917 160.56257629 162.13470459 C158.07294431 162.1391232 155.58338277 162.1361851 153.09375 162.1328125 C151.37121568 162.13348554 149.64868145 162.13445556 147.92614746 162.13571167 C144.31127012 162.13718865 140.69641745 162.13503407 137.08154297 162.13037109 C132.43733507 162.1246738 127.79318496 162.1279528 123.14897919 162.13394356 C119.59063274 162.13754916 116.0323001 162.13641059 112.47395325 162.13381577 C110.76105238 162.13314649 109.04815028 162.13397493 107.33525085 162.13629532 C104.94547178 162.13882183 102.55578759 162.1349813 100.16601562 162.12939453 C99.45117508 162.13141876 98.73633453 162.13344299 97.99983215 162.13552856 C93.11426269 162.11426269 93.11426269 162.11426269 92 161 C91.875 158.5 91.875 158.5 92 156 C93.56305491 154.43694509 95.27678218 154.69360032 97.4375 154.5 C100.84497505 154.20853056 100.84497505 154.20853056 104 153 C104.50976672 148.24217731 104.56239458 145.15939059 101.75 141.1875 C97.91522419 136.55648196 93.39185384 132.59381467 88.90234375 128.61328125 C84.84584728 124.96079654 81.07433226 121.17714341 77.5625 117 C74.602125 113.57726709 71.52113478 110.83221711 68 108 C66.31677141 106.34754342 64.65484759 104.68054237 63 103 C60.10724884 100.08026422 57.21015944 97.16486352 54.3125 94.25 C53.54099609 93.47011719 52.76949219 92.69023438 51.97460938 91.88671875 C51.23662109 91.14550781 50.49863281 90.40429688 49.73828125 89.640625 C49.06837158 88.96547852 48.39846191 88.29033203 47.70825195 87.59472656 C46.07595037 85.91986953 46.07595037 85.91986953 44 85 C43.97447548 91.91934413 43.95706035 98.83867594 43.94506836 105.75805664 C43.94006471 108.10799615 43.93325973 110.45793259 43.92456055 112.80786133 C43.91232011 116.20134239 43.90673185 119.594782 43.90234375 122.98828125 C43.89718246 124.02519608 43.89202118 125.0621109 43.88670349 126.13044739 C43.35729965 139.73978888 43.35729965 139.73978888 48 152 C52.56054624 154.39428678 57.64292448 154.41903279 62.70703125 154.75390625 C65 155 65 155 66 156 C66.04063832 157.66617115 66.042721 159.33388095 66 161 C51.80862693 162.08975395 37.66435221 162.11753417 23.4375 162.0625 C21.15429786 162.05747128 18.87109465 162.05291082 16.58789062 162.04882812 C11.05856969 162.03793975 5.52929009 162.02131204 0 162 C0 159.69 0 157.38 0 155 C0.83144531 154.86722656 1.66289063 154.73445312 2.51953125 154.59765625 C4.14955078 154.33275391 4.14955078 154.33275391 5.8125 154.0625 C6.89144531 153.88847656 7.97039063 153.71445313 9.08203125 153.53515625 C12.04933356 153.06128079 12.04933356 153.06128079 15 152 C19.24779096 141.0255723 18.4058216 128.56528957 18.328125 117.01953125 C18.32505549 114.9967208 18.32318845 112.97390822 18.32244873 110.95109558 C18.31786948 106.7226035 18.30355142 102.49430435 18.28125 98.26586914 C18.25320314 92.92980237 18.24216672 87.59388633 18.23740387 82.25775337 C18.22000113 64.1346918 18.18499555 46.00369314 17.671875 27.88671875 C17.63963837 26.3054998 17.63963837 26.3054998 17.60675049 24.69233704 C17.41746344 19.43956592 17.00841878 15.5013353 14 11 C9.48451507 7.95467295 5.29936184 7.45684154 0 7 C0 4.69 0 2.38 0 0 Z " fill="#FEFEFE" transform="translate(0,6)"/>
<path d="M0 0 C6.78986323 3.16314684 13.17457932 3.16779788 20.5625 3.1484375 C23.05215127 3.16498426 25.54176669 3.18933875 28.03125 3.22265625 C29.11857422 3.22225342 30.20589844 3.22185059 31.32617188 3.22143555 C34.0625 3.4609375 34.0625 3.4609375 37.0625 5.4609375 C37.42578125 7.3359375 37.42578125 7.3359375 37.375 9.4609375 C37.37113281 10.1621875 37.36726562 10.8634375 37.36328125 11.5859375 C37.0625 13.4609375 37.0625 13.4609375 35.0625 15.4609375 C33.18310547 15.77978516 33.18310547 15.77978516 30.9296875 15.875 C30.12402344 15.91367188 29.31835938 15.95234375 28.48828125 15.9921875 C27.22564453 16.03859375 27.22564453 16.03859375 25.9375 16.0859375 C25.08800781 16.12460938 24.23851562 16.16328125 23.36328125 16.203125 C21.26338316 16.29750244 19.16297109 16.38031336 17.0625 16.4609375 C17.33964844 16.99203125 17.61679687 17.523125 17.90234375 18.0703125 C18.44568359 19.12992188 18.44568359 19.12992188 19 20.2109375 C19.53947266 21.25507812 19.53947266 21.25507812 20.08984375 22.3203125 C23.5150623 29.85854448 23.27202999 40.5434307 20.9375 48.3984375 C19.08669443 53.00815417 16.29385923 56.72539456 13.0625 60.4609375 C12.54816406 61.08097656 12.03382813 61.70101562 11.50390625 62.33984375 C3.37401857 71.36655357 -8.01097574 73.99046882 -19.75390625 74.609375 C-25.47183864 74.69071116 -30.97700902 74.17566574 -36.625 73.2890625 C-37.388125 73.34578125 -38.15125 73.4025 -38.9375 73.4609375 C-40.64779753 75.38688606 -40.64779753 75.38688606 -41.9375 77.4609375 C-42.5975 77.4609375 -43.2575 77.4609375 -43.9375 77.4609375 C-44.9275 82.4109375 -44.9275 82.4109375 -45.9375 87.4609375 C-34.12343627 88.59605743 -22.36506674 89.53793884 -10.5 89.8984375 C19.92213753 90.96206311 19.92213753 90.96206311 28.9296875 100.421875 C30.45367731 102.38337385 31.80332418 104.3211894 33.0625 106.4609375 C33.43761719 107.05132812 33.81273437 107.64171875 34.19921875 108.25 C36.57031117 114.32257155 35.70499721 122.93378183 34.125 129.1484375 C24.97930365 143.83698013 14.13390387 154.4232311 -3.02709961 159.02075195 C-10.41548123 160.72459859 -17.69534136 160.79305999 -25.25 160.7734375 C-26.47912109 160.78955078 -27.70824219 160.80566406 -28.97460938 160.82226562 C-44.38197665 160.83039616 -58.94789203 157.40677754 -70.6328125 146.85546875 C-73.53024948 143.75850767 -74.55856312 141.26451817 -74.44140625 137.03125 C-72.59956876 127.63645101 -66.23290882 117.52289576 -58.9375 111.4609375 C-57.0703125 110.45703125 -57.0703125 110.45703125 -54.9375 110.4609375 C-52.7919731 111.84800441 -50.94259324 113.20619635 -49 114.8359375 C-44.03770164 118.95508445 -44.03770164 118.95508445 -37.9375 120.4609375 C-35.21247035 120.08371735 -35.21247035 120.08371735 -32.9375 119.4609375 C-32.9375 123.60769882 -33.4151945 124.77301815 -35.4375 128.2109375 C-36.13359375 129.40976562 -36.13359375 129.40976562 -36.84375 130.6328125 C-37.2046875 131.23609375 -37.565625 131.839375 -37.9375 132.4609375 C-42.58694408 132.00010764 -44.48476508 130.33042556 -47.625 126.9609375 C-50.4660757 123.78897073 -50.4660757 123.78897073 -53.9375 121.4609375 C-54.47767887 129.03102514 -54.47767887 129.03102514 -50.9375 135.4609375 C-42.41199216 142.44015225 -31.63316436 143.97941373 -20.9375 144.4609375 C-19.94105469 144.51378906 -18.94460938 144.56664062 -17.91796875 144.62109375 C-5.14867173 144.98323164 8.73474031 143.48598436 18.875 135.1484375 C21.83675581 131.50970893 24.1130413 128.07989583 24.01953125 123.234375 C23.78346782 121.29797066 23.43213849 119.37633696 23.0625 117.4609375 C13.49114724 114.71920399 4.61147549 114.01513772 -5.27761841 113.92245483 C-9.26132604 113.88169536 -13.24377462 113.78794144 -17.2265625 113.6953125 C-17.99603714 113.67796555 -18.76551178 113.66061859 -19.55830383 113.64274597 C-50.27334477 112.89432981 -50.27334477 112.89432981 -60.62890625 102.9609375 C-63.41894183 99.76280716 -63.9375 97.47306312 -63.9375 93.2734375 C-61.28698653 83.16835491 -54.41295262 76.40453974 -46.9375 69.4609375 C-47.51757812 69.06003906 -48.09765625 68.65914063 -48.6953125 68.24609375 C-57.90248847 61.54582213 -64.0235436 52.82715224 -65.9375 41.4609375 C-67.00222724 29.43475608 -64.139151 19.28949327 -56.83984375 9.64453125 C-50.32828756 2.17028092 -40.71403466 -2.89692083 -30.875 -4.3515625 C-20.07954425 -4.86563182 -9.76432472 -5.23061622 0 0 Z M-35.625 6.8984375 C-42.05707753 14.02587477 -43.03317191 24.21265283 -42.9375 33.4609375 C-42.13037376 44.86004344 -40.2420998 55.02749769 -31.71875 63.0859375 C-26.21244265 67.33642037 -20.68476597 67.1595404 -13.9375 66.4609375 C-9.61371164 65.17839282 -6.88547772 62.79137949 -4.5625 58.9609375 C0.53651377 47.9784463 -0.41399591 31.38447458 -3.88671875 20.01171875 C-6.35438342 14.02143983 -9.20573046 7.87071281 -14.9375 4.4609375 C-22.39343946 2.75965882 -28.84611927 3.27252455 -35.625 6.8984375 Z " fill="#FDFDFD" transform="translate(892.9375,58.5390625)"/>
<path d="M0 0 C1.29422379 0.00212242 1.29422379 0.00212242 2.61459351 0.00428772 C5.3759098 0.00989437 8.13714562 0.02244798 10.8984375 0.03515625 C12.768228 0.04017039 14.63801976 0.04473345 16.5078125 0.04882812 C21.09638527 0.05986596 25.68489773 0.07713505 30.2734375 0.09765625 C30.28556778 1.5489241 30.28556778 1.5489241 30.29794312 3.0295105 C30.37567356 12.17995022 30.4634791 21.33024617 30.56096458 30.48049736 C30.61075524 35.18390877 30.65708583 39.88729958 30.6953125 44.59082031 C30.73238419 49.13616038 30.77880138 53.68132049 30.83150101 58.22650528 C30.84992936 59.95426376 30.86507921 61.68206065 30.87678146 63.40987778 C30.43681365 78.34238137 30.43681365 78.34238137 35.1484375 92.09765625 C39.25548638 95.96311402 42.90106613 96.66120429 48.421875 96.5390625 C53.92695199 95.68690675 58.64996732 93.11887526 63.2734375 90.09765625 C63.93990799 89.66687271 64.60637848 89.23608917 65.29304504 88.79225159 C68.55728933 86.37318006 70.89272565 84.49772054 71.98345947 80.48655701 C72.2155868 77.33885546 72.1994535 74.28332924 72.08984375 71.12890625 C72.08089584 69.97579956 72.07194794 68.82269287 72.06272888 67.63464355 C72.024714 63.95401986 71.93072411 60.27720969 71.8359375 56.59765625 C71.80435132 54.15499172 71.77632172 51.71227845 71.75195312 49.26953125 C73.0203391 29.0047118 73.0203391 29.0047118 68.2734375 10.09765625 C64.06562895 8.23839201 59.81996076 7.64323904 55.2734375 7.09765625 C55.23089394 5.09810879 55.23262967 3.09723989 55.2734375 1.09765625 C56.2734375 0.09765625 56.2734375 0.09765625 59.87524414 -0.01586914 C61.47803606 -0.01571 63.0808331 -0.01001438 64.68359375 0 C65.52562851 0.00141495 66.36766327 0.0028299 67.23521423 0.00428772 C69.93549085 0.00990362 72.63568578 0.02245877 75.3359375 0.03515625 C77.16210818 0.0401692 78.98828016 0.04473246 80.81445312 0.04882812 C85.30081292 0.05987821 89.78711134 0.07715346 94.2734375 0.09765625 C94.2888987 1.25466286 94.2888987 1.25466286 94.30467224 2.43504333 C94.4040808 9.82952665 94.50675124 17.22395506 94.61277676 24.61834621 C94.66713301 28.41668581 94.7203773 32.21503309 94.77075195 36.01342773 C94.96804194 50.82814377 95.18235292 65.63906191 95.74609375 80.4453125 C95.78318954 81.46265976 95.82028534 82.48000702 95.85850525 83.52818298 C95.89754471 84.46126785 95.93658417 85.39435272 95.97680664 86.35571289 C96.00988419 87.15691055 96.04296173 87.95810822 96.07704163 88.78358459 C96.28866953 91.27713056 96.73964157 93.65449055 97.2734375 96.09765625 C98.68999543 96.12489775 100.10670795 96.14416092 101.5234375 96.16015625 C102.31234375 96.17175781 103.10125 96.18335938 103.9140625 96.1953125 C106.18034752 96.10150931 108.102327 95.73006688 110.2734375 95.09765625 C110.9334375 96.74765625 111.5934375 98.39765625 112.2734375 100.09765625 C103.94015073 104.57083743 95.62717941 108.57992027 86.6484375 111.59765625 C85.90352051 111.85240723 85.15860352 112.1071582 84.39111328 112.36962891 C79.90957396 113.81747962 77.27057305 114.09765625 72.2734375 114.09765625 C71.9434375 107.82765625 71.6134375 101.55765625 71.2734375 95.09765625 C70.0153125 96.23203125 68.7571875 97.36640625 67.4609375 98.53515625 C64.95694787 100.79285182 63.50485395 102.02051743 60.2734375 103.09765625 C59.7784375 104.58265625 59.7784375 104.58265625 59.2734375 106.09765625 C57.19921875 107.6328125 57.19921875 107.6328125 54.5859375 109.16015625 C53.73644531 109.66675781 52.88695312 110.17335938 52.01171875 110.6953125 C44.00820265 114.79411747 35.04804486 115.82695043 26.3515625 113.22265625 C19.09047175 109.87815385 14.51044729 105.11211789 11.0234375 97.97265625 C9.30562011 93.04166214 8.68250602 88.24803858 8.19921875 83.08203125 C8.11430679 82.17869049 8.02939484 81.27534973 7.94190979 80.34463501 C6.83828053 67.41605878 6.84323642 54.43959344 6.7109375 41.47265625 C6.66688572 37.57876752 6.62031053 33.68495677 6.56813049 29.79116821 C6.53634283 27.39065598 6.50940118 24.99007343 6.48789978 22.58944702 C6.47440994 21.51627228 6.4609201 20.44309753 6.44702148 19.33740234 C6.43750961 18.3948056 6.42799774 17.45220886 6.41819763 16.48104858 C6.36733245 13.94912129 6.36733245 13.94912129 5.2734375 11.09765625 C-0.34553418 8.43603809 -4.55368062 7.76696615 -10.7265625 8.09765625 C-10.7265625 5.78765625 -10.7265625 3.47765625 -10.7265625 1.09765625 C-7.39500999 -0.56812 -3.66120191 -0.02242231 0 0 Z " fill="#FEFEFE" transform="translate(942.7265625,56.90234375)"/>
<path d="M0 0 C6.32561248 5.19351181 9.15219268 10.41708783 10.74609375 18.43359375 C11.16735741 23.48871216 11.18713657 28.53239926 11.1875 33.6015625 C11.19929983 35.0502504 11.21267032 36.49892626 11.2275238 37.94758606 C11.26345177 41.73415225 11.28383525 45.52061166 11.29907227 49.30731201 C11.32404824 55.37663488 11.36384165 61.4457221 11.42097282 67.51482582 C11.43717168 69.62136654 11.44106627 71.72767929 11.44398499 73.83427429 C11.45926491 75.76712029 11.45926491 75.76712029 11.47485352 77.73901367 C11.4812661 79.42917854 11.4812661 79.42917854 11.48780823 81.15348816 C11.77939422 84.85649415 12.61978063 87.90290589 13.74609375 91.43359375 C18.55320518 91.14225366 20.81555121 88.83598167 24.09765625 85.61328125 C24.64164063 85.22398437 25.185625 84.8346875 25.74609375 84.43359375 C27.23109375 84.92859375 27.23109375 84.92859375 28.74609375 85.43359375 C28.10242198 93.53983516 24.35872502 97.82096248 18.74609375 103.43359375 C13.40560975 107.60356071 7.57717539 109.8475987 0.74609375 109.43359375 C-4.6511807 107.74033118 -8.23577529 104.12406613 -11.25390625 99.43359375 C-12.12890625 95.99609375 -12.12890625 95.99609375 -12.25390625 93.43359375 C-12.98480469 94.17802734 -12.98480469 94.17802734 -13.73046875 94.9375 C-23.65938984 104.45121167 -35.02989745 109.91312919 -48.859375 109.7734375 C-55.67838861 109.09075144 -61.03353491 106.09862293 -65.69140625 101.12109375 C-72.05782019 92.64456527 -72.17609021 83.61815283 -71.25390625 73.43359375 C-68.48528064 62.23130859 -60.90863597 55.26764657 -51.25390625 49.43359375 C-22.84062212 34.43359375 -22.84062212 34.43359375 -12.25390625 34.43359375 C-12.47529375 31.05608442 -12.73611877 27.68271603 -13.00390625 24.30859375 C-13.06578125 23.35726562 -13.12765625 22.4059375 -13.19140625 21.42578125 C-13.67681611 15.6008629 -14.38110353 11.89231865 -18.25390625 7.43359375 C-23.75376683 4.1336774 -28.91781981 3.69124699 -35.25390625 4.43359375 C-39.50053646 5.74618854 -40.80593747 6.70191141 -43.12890625 10.49609375 C-44.54491849 14.3453684 -44.29673601 17.95258568 -44.1796875 22 C-44.29727877 25.8557559 -45.28535723 28.10742471 -47.25390625 31.43359375 C-50.59494582 34.39280023 -53.79080785 35.01997892 -58.25390625 34.859375 C-61.90572301 34.08193745 -63.70439059 32.10747603 -66.25390625 29.43359375 C-68.25332618 23.43533395 -67.91102199 18.14879478 -65.31640625 12.37109375 C-60.68817823 3.98813427 -53.33891351 -1.70853973 -44.25390625 -4.56640625 C-30.12521388 -8.43180322 -12.42437445 -8.7048112 0 0 Z M-23.87890625 48.05859375 C-24.85214844 48.48527344 -25.82539063 48.91195312 -26.828125 49.3515625 C-35.76945299 53.38298225 -43.03141472 57.31301205 -47.25390625 66.43359375 C-49.1961397 72.75897566 -49.35243345 79.90141849 -46.50390625 85.93359375 C-44.77408883 88.86051665 -43.41524447 90.981087 -40.25390625 92.43359375 C-33.55553468 94.14870099 -28.46056017 93.21631007 -22.25390625 90.43359375 C-21.39804932 90.10093506 -20.54219238 89.76827637 -19.66040039 89.42553711 C-16.38293074 87.75063015 -14.52138716 86.36573017 -12.25390625 83.43359375 C-10.40871759 76.87002676 -10.99336644 69.74328892 -11.12890625 62.99609375 C-11.13084953 61.10091067 -11.12829164 59.20571729 -11.12109375 57.31054688 C-11.11329121 52.6831517 -11.16698999 48.06013985 -11.25390625 43.43359375 C-15.62017266 43.43359375 -19.96001161 46.28926098 -23.87890625 48.05859375 Z " fill="#FDFDFD" transform="translate(502.25390625,60.56640625)"/>
<path d="M0 0 C8.51232295 7.53802092 10.27255384 16.07848213 11 27 C11.10019516 30.87027926 11.0708752 34.73442865 11.02734375 38.60546875 C11.01469282 40.82877446 11.0023322 43.05208184 10.99023438 45.27539062 C10.96553034 48.72637333 10.93759949 52.17726536 10.90405273 55.62817383 C10.78939293 68.24887833 10.71690572 80.54990148 13 93 C18.80761348 91.58488863 18.80761348 91.58488863 23.25 87.875 C24.1575 86.92625 25.065 85.9775 26 85 C26.99 85 27.98 85 29 85 C29.9435441 87.53899138 30.16906025 88.60909275 29.07421875 91.140625 C28.61660156 91.83671875 28.15898438 92.5328125 27.6875 93.25 C27.23761719 93.95640625 26.78773438 94.6628125 26.32421875 95.390625 C25.88722656 95.92171875 25.45023438 96.4528125 25 97 C24.34 97 23.68 97 23 97 C22.75894531 97.58523437 22.51789063 98.17046875 22.26953125 98.7734375 C20.75641436 101.42721174 19.11031271 102.77633282 16.6875 104.625 C15.92824219 105.21539062 15.16898438 105.80578125 14.38671875 106.4140625 C9.0396848 109.96708342 4.29340411 110.71073052 -2 110 C-6.28325477 108.38188153 -8.02119824 105.84797523 -10.203125 102.01171875 C-11.2422364 99.38847184 -11.60713625 96.78540401 -12 94 C-12.65484375 94.58007812 -13.3096875 95.16015625 -13.984375 95.7578125 C-23.95998852 104.29626136 -33.98463808 110.53747294 -47.4375 110.40234375 C-54.96092047 109.5526592 -61.71643674 106.12256928 -66.5625 100.25 C-72.06784774 91.63364215 -72.97259316 82.96098283 -71 73 C-66.64815396 59.75768738 -56.04259805 53.0717386 -44.21484375 47.0625 C-34.1048905 42.05639252 -23.76866492 38.32506145 -13 35 C-12.5553236 25.84707749 -12.22156856 17.20002432 -17 9 C-21.64828463 4.73587113 -26.46815921 4.70484305 -32.52734375 4.78515625 C-35.96624789 5.08395519 -38.18877679 6.01157383 -41 8 C-44.14444349 12.12755112 -44.32353349 15.32687513 -44.375 20.4375 C-44.68935671 28.63351103 -44.68935671 28.63351103 -47.125 31.8125 C-50.52579111 34.40005845 -52.7439552 35.48633942 -57 36 C-60.82169835 34.91718547 -63.17073168 33.85601891 -65.9375 31 C-68.072515 24.97172234 -68.06982021 18.51598175 -65.3125 12.6875 C-60.00081724 2.96034432 -51.60929147 -1.37889353 -41.42578125 -4.88671875 C-28.65554319 -7.94377065 -11.08532898 -7.75053084 0 0 Z M-40.3359375 58.2734375 C-46.9265046 65.11153764 -48.37231351 70.68161538 -48.28125 80.015625 C-47.78358632 85.2963896 -45.86921962 88.44231698 -41.75 91.875 C-36.48107009 94.03047133 -32.06367678 94.55665307 -26.625 93 C-25.07624703 92.34996554 -23.535569 91.68059414 -22 91 C-21.13632812 90.66154053 -20.27265625 90.32308105 -19.3828125 89.97436523 C-16.12304469 88.29883732 -14.25106196 86.9237212 -12 84 C-10.29152839 77.57807838 -11.06578038 70.62670752 -11.375 64.0625 C-11.4252003 62.21561477 -11.47082081 60.36859901 -11.51171875 58.52148438 C-11.62153749 54.0110868 -11.79382529 49.50697922 -12 45 C-20.90163491 45 -33.84017148 52.60581695 -40.3359375 58.2734375 Z " fill="#FDFDFD" transform="translate(784,60)"/>
<path d="M0 0 C9.99393266 7.85860112 14.34726397 18.81075762 16.86328125 30.98828125 C17.0625 33.3125 17.0625 33.3125 16.0625 38.3125 C-8.3575 38.3125 -32.7775 38.3125 -57.9375 38.3125 C-54.55938297 62.37721593 -54.55938297 62.37721593 -39.99609375 80.765625 C-33.17781385 85.26801856 -27.07594657 86.65851015 -19 86.625 C-17.84081055 86.64916992 -17.84081055 86.64916992 -16.65820312 86.67382812 C-10.13774268 86.67933993 -5.43344809 85.39245675 -0.3125 81.125 C4.57044482 75.34256535 7.63753647 69.45976094 10.0625 62.3125 C12.0425 62.6425 14.0225 62.9725 16.0625 63.3125 C17.33804416 74.2821798 10.83205878 85.21165778 4.28515625 93.5859375 C-4.01912354 103.48529677 -12.82973529 108.47005517 -25.73828125 109.6640625 C-38.42977591 110.30301467 -49.33546846 106.87834109 -58.9375 98.3125 C-59.783125 97.57 -60.62875 96.8275 -61.5 96.0625 C-75.79476194 79.93507627 -78.07970029 62.12463251 -76.9375 41.3125 C-75.64802831 26.74808259 -68.8581337 13.03516276 -57.9375 3.3125 C-40.75939389 -9.62621616 -18.40059343 -12.45769907 0 0 Z M-50.7890625 10.2265625 C-55.36079807 16.41980035 -55.96197416 21.41039665 -57.9375 29.3125 C-42.0975 29.3125 -26.2575 29.3125 -9.9375 29.3125 C-11.15118593 19.60301256 -13.38784375 12.72071168 -21.09375 6.46875 C-30.70735962 0.43987617 -42.92429944 2.09632221 -50.7890625 10.2265625 Z " fill="#FDFDFD" transform="translate(252.9375,61.6875)"/>
<path d="M0 0 C0.66 0 1.32 0 2 0 C2.11681088 16.86347969 2.20497694 33.7268331 2.25906086 50.59062481 C2.28484068 58.42082431 2.31998658 66.25077241 2.37719727 74.08081055 C2.4270395 80.90563319 2.45929264 87.73027377 2.47044247 94.55527335 C2.47696001 98.16903809 2.49227222 101.78228198 2.52865028 105.39587975 C2.56893633 109.43041443 2.56994894 113.46404414 2.56762695 117.4987793 C2.58560333 118.69639893 2.60357971 119.89401855 2.62210083 121.12792969 C2.57147486 129.23531643 2.57147486 129.23531643 -0.39094543 133.19929504 C-2.55764942 134.69470056 -4.56392744 136.007526 -7 137 C-7 137.66 -7 138.32 -7 139 C-8.53898561 139.79686606 -10.08133784 140.58723141 -11.625 141.375 C-12.91277344 142.03628906 -12.91277344 142.03628906 -14.2265625 142.7109375 C-20.43126526 145.59481343 -25.6126671 146.38537068 -32.375 146.375 C-33.24970947 146.37628906 -34.12441895 146.37757813 -35.02563477 146.37890625 C-42.30403306 146.26261046 -48.76128924 144.94596556 -55.71484375 142.875 C-58.6702793 142.08782097 -60.96904158 141.81595698 -64 142 C-64 142.66 -64 143.32 -64 144 C-66.375 144.625 -66.375 144.625 -69 145 C-71.57811234 142.42188766 -71.23752085 140.69655841 -71.25224304 137.18347168 C-71.24505753 136.39073853 -71.23787201 135.59800537 -71.23046875 134.78125 C-71.23001053 133.96756958 -71.22955231 133.15388916 -71.2290802 132.31555176 C-71.22605711 130.59397932 -71.2181691 128.87240964 -71.20581055 127.15087891 C-71.18757352 124.51064398 -71.18530072 121.87076004 -71.18554688 119.23046875 C-71.18063094 117.55989279 -71.1748023 115.88931922 -71.16796875 114.21875 C-71.16685593 113.42601685 -71.1657431 112.63328369 -71.16459656 111.81652832 C-71.11606827 106.23213654 -71.11606827 106.23213654 -70 104 C-68.125 103.25 -68.125 103.25 -66 103 C-62.57159438 105.28560374 -62.53972245 105.76699582 -61.625 109.5625 C-58.92022165 119.36201109 -53.94987363 127.72721489 -45.06640625 132.9296875 C-38.502023 136.32976502 -30.83614865 137.43777392 -23.6875 135.3125 C-20.19671574 133.77244812 -18.29918457 132.40202927 -16 129.3125 C-14.25093269 123.51871454 -14.19429716 119.03177238 -16.4375 113.375 C-21.98800652 105.07785108 -31.32331633 101.17679204 -39.9921875 96.96875 C-52.42955666 90.91270339 -64.40804358 84.2808965 -70 71 C-72.56607142 63.02034564 -71.81673684 53.81201011 -68.3203125 46.28125 C-64.19216889 39.1485995 -58.78939976 33.8862508 -51 31 C-38.2065356 27.65770743 -25.51119161 29.52279332 -12.91796875 32.92578125 C-10.88304524 33.22326512 -10.88304524 33.22326512 -9.37109375 31.58984375 C-8.91863281 31.06519531 -8.46617188 30.54054688 -8 30 C-5.875 29.25 -5.875 29.25 -4 29 C-3 30 -3 30 -2.88647461 33.69360352 C-2.88663376 35.33871292 -2.89233012 36.98382731 -2.90234375 38.62890625 C-2.9037587 39.49313705 -2.90517365 40.35736786 -2.90663147 41.24778748 C-2.91224761 44.01939292 -2.92480281 46.7909188 -2.9375 49.5625 C-2.94251292 51.4368478 -2.94707619 53.31119685 -2.95117188 55.18554688 C-2.96222228 59.79039544 -2.9794977 64.39518421 -3 69 C-5.40063477 68.70947266 -5.40063477 68.70947266 -8 68 C-9.23243027 65.40190375 -10.10810855 63.09768567 -10.9375 60.375 C-13.93846297 51.61769696 -16.70130759 46.53446949 -25.125 42.125 C-31.12821373 39.30105834 -36.74620046 37.76137285 -43.34765625 39.68359375 C-47.2731828 41.22188952 -49.53414805 42.36474734 -52.0625 45.8125 C-53.48789042 50.65882741 -53.60078427 54.2683277 -51.9375 59.0625 C-47.6109741 65.62207152 -41.76936271 68.899634 -34.625 71.75 C-28.12743737 74.49935843 -21.91372802 77.51530591 -15.8125 81.0625 C-15.13074707 81.44954102 -14.44899414 81.83658203 -13.74658203 82.23535156 C-8.78260812 85.18504809 -4.91419266 88.77096845 -1 93 C0.18550465 62.00346765 0.1086041 31.01496695 0 0 Z " fill="#F8F8F8" transform="translate(1136,25)"/>
<path d="M0 0 C1.58674529 1.58674529 1.12928104 3.20834837 1.13371277 5.40966797 C1.14011024 6.83894119 1.14011024 6.83894119 1.14663696 8.29708862 C1.14595718 9.87866257 1.14595718 9.87866257 1.14526367 11.4921875 C1.14862228 12.59644073 1.1519809 13.70069397 1.15544128 14.83840942 C1.16499655 18.5172842 1.16689763 22.19611356 1.16796875 25.875 C1.17118159 28.43359394 1.17454568 30.9921877 1.17805481 33.55078125 C1.18405988 38.93457542 1.18593638 44.31835158 1.18530273 49.70214844 C1.18470632 55.88495324 1.19516633 62.06766955 1.2110464 68.25045204 C1.22583372 74.2246143 1.22928687 80.19872965 1.22869301 86.1729126 C1.22986498 88.69875445 1.23424224 91.22459711 1.24202538 93.75042725 C1.37060066 139.84609616 1.37060066 139.84609616 -13 155 C-20.86290094 162.75875656 -30.99820572 165.20266065 -41.8125 165.375 C-50.07750223 165.11990734 -56.30434108 164.26087487 -63 159 C-65.51250583 155.23124125 -65.53016086 153.46849866 -65 149 C-62.98393884 145.48815153 -61.74655391 143.70824824 -58.015625 142.1953125 C-52.00018567 140.97942583 -48.30918291 143.0197145 -43.33984375 146.296875 C-41.9114296 147.33658881 -40.50176241 148.40358285 -39.12890625 149.515625 C-34.45884863 153.26892766 -30.92649096 153.60474398 -25 153 C-21.56241243 138.51540771 -21.8485647 123.7366939 -21.8671875 108.9453125 C-21.86651175 107.03067004 -21.86553947 105.11602767 -21.86428833 103.2013855 C-21.86282341 99.20928115 -21.86492633 95.21719935 -21.86962891 91.22509766 C-21.87531763 86.15339926 -21.87204485 81.0817539 -21.86605644 76.01005745 C-21.86241141 72.0616721 -21.86360749 68.11329894 -21.86618423 64.16491318 C-21.86684305 62.29694487 -21.86606245 60.42897539 -21.86370468 58.56100845 C-21.34588526 38.48723697 -21.34588526 38.48723697 -25 19 C-31.435 19.495 -31.435 19.495 -38 20 C-38 17.69 -38 15.38 -38 13 C-34.65669864 11.60212641 -31.31159825 10.20863213 -27.96533203 8.81787109 C-26.58566381 8.24372345 -25.20647319 7.66842743 -23.82763672 7.09228516 C-21.55287781 6.14214376 -19.27656107 5.1958141 -17 4.25 C-16.27047119 3.94441162 -15.54094238 3.63882324 -14.78930664 3.32397461 C-9.68775505 1.21022917 -5.54757941 -0.29986916 0 0 Z " fill="#FDFDFD" transform="translate(402,54)"/>
<path d="M0 0 C1.25433458 3.76300374 1.10695422 7.27210909 1.0625 11.1875 C1.05798828 11.93708984 1.05347656 12.68667969 1.04882812 13.45898438 C1.03706354 15.30602383 1.01912865 17.15302213 1 19 C1.61875 18.03900391 1.61875 18.03900391 2.25 17.05859375 C7.17700051 9.67909075 13.01601756 1.74599561 22.078125 -0.51953125 C27.72427357 -1.28115201 31.99991402 -0.85407958 37 2 C41.44916031 5.78651941 42.80995434 8.03619488 43.375 13.875 C43.31929397 17.24830988 43.04907224 17.9330833 40.9375 20.8125 C37.56260135 23.3257224 35.08909108 24.90957571 31 26 C26.29640774 25.26942459 22.68037877 23.48026737 18.8125 20.75 C16.13526974 18.72180263 16.13526974 18.72180263 13.05859375 19.1015625 C9.29540306 20.20696973 8.38245982 21.38718257 6.25 24.625 C5.39148438 25.88183594 5.39148438 25.88183594 4.515625 27.1640625 C0.70041194 34.30283745 0.70492753 40.98423172 0.734375 48.92578125 C0.73246155 50.06855026 0.7305481 51.21131927 0.72857666 52.38871765 C0.72721926 54.80008159 0.73088451 57.21145295 0.73925781 59.62280273 C0.74993368 63.28972033 0.73936232 66.95614472 0.7265625 70.62304688 C0.72788475 72.9739594 0.7304485 75.32487163 0.734375 77.67578125 C0.73032654 78.76151932 0.72627808 79.84725739 0.72210693 80.96589661 C0.58826755 93.3465604 0.58826755 93.3465604 6 104 C8.91300417 104.87714573 8.91300417 104.87714573 12.125 105.1875 C17.93259972 105.93259972 17.93259972 105.93259972 19 107 C19.125 109.5 19.125 109.5 19 112 C17.31024761 113.68975239 15.18465376 113.14481531 12.86938477 113.16113281 C11.77477432 113.17074036 10.68016388 113.1803479 9.55238342 113.19024658 C8.36076096 113.19449646 7.16913849 113.19874634 5.94140625 113.203125 C4.11946999 113.21167511 4.11946999 113.21167511 2.26072693 113.22039795 C-0.31421024 113.22986467 -2.88915962 113.23638853 -5.46411133 113.24023438 C-9.41704259 113.24994972 -13.36945634 113.28096228 -17.32226562 113.3125 C-19.81770523 113.31902855 -22.31314857 113.3242796 -24.80859375 113.328125 C-25.99819199 113.3404718 -27.18779022 113.3528186 -28.41343689 113.36553955 C-29.51119949 113.36253845 -30.6089621 113.35953735 -31.73999023 113.35644531 C-32.7096019 113.36009094 -33.67921356 113.36373657 -34.6782074 113.36749268 C-35.44439896 113.24622009 -36.21059052 113.12494751 -37 113 C-37.66 112.01 -38.32 111.02 -39 110 C-38.30859375 108.0625 -38.30859375 108.0625 -37 106 C-34.72265625 105.3125 -34.72265625 105.3125 -32.0625 105 C-28.24442893 104.55612783 -28.24442893 104.55612783 -25.24609375 102.3125 C-22.81423993 97.79946721 -22.87439031 92.81901554 -22.87060547 87.78613281 C-22.86745331 86.57757629 -22.86430115 85.36901978 -22.86105347 84.12384033 C-22.8630777 82.83000427 -22.86510193 81.53616821 -22.8671875 80.203125 C-22.86651269 78.84560122 -22.86554119 77.48807757 -22.86428833 76.1305542 C-22.86281768 73.28949835 -22.86494418 70.44847404 -22.86962891 67.60742188 C-22.87530398 63.99219857 -22.8720573 60.3770499 -22.86605644 56.76182938 C-22.86241502 53.95802261 -22.86360611 51.15423305 -22.86618423 48.35042572 C-22.86716296 46.37759858 -22.86415943 44.40477074 -22.86105347 42.4319458 C-22.2664206 30.18139888 -22.2664206 30.18139888 -26 19 C-30.16414038 17.57229473 -33.72539929 18.35477725 -38 19 C-38.66 18.67 -39.32 18.34 -40 18 C-40.3125 15.6875 -40.3125 15.6875 -40 13 C-34.61375443 9.20233583 -28.23466313 7.21760012 -22.125 4.875 C-20.96613281 4.41996094 -19.80726563 3.96492188 -18.61328125 3.49609375 C-4.14924952 -2.07462476 -4.14924952 -2.07462476 0 0 Z " fill="#FEFEFE" transform="translate(316,55)"/>
<path d="M0 0 C1.08087891 -0.03673828 1.08087891 -0.03673828 2.18359375 -0.07421875 C5.70481667 -0.09367302 7.71904246 0.0702076 10.5703125 2.2109375 C13.47604363 6.25559842 13.77497329 10.5413958 13.125 15.375 C11.33048969 19.03304024 9.73377052 20.93611892 6.4375 23.3125 C2.0386937 24.72343787 -1.44636116 24.69568337 -5.875 23.375 C-8.87934566 21.57865166 -11.28283628 19.55932744 -12.875 16.375 C-13.42891144 10.95305915 -13.36554186 6.80530313 -9.875 2.375 C-6.95572255 -0.54427745 -3.90510187 0.00691168 0 0 Z " fill="#FDFDFD" transform="translate(390.875,-0.375)"/>
<path d="M0 0 C0.99 0.33 1.98 0.66 3 1 C3 2.65 3 4.3 3 6 C1.35 6 -0.3 6 -2 6 C-2.33 4.68 -2.66 3.36 -3 2 C-2.01 1.34 -1.02 0.68 0 0 Z " fill="#F4F6F6" transform="translate(628,47)"/>
<path d="M0 0 C-0.66 1.32 -1.32 2.64 -2 4 C-3.32 4 -4.64 4 -6 4 C-6 3.01 -6 2.02 -6 1 C-3.92446352 0.4465236 -2.15634036 0 0 0 Z " fill="#FAFAFA" transform="translate(609,49)"/>
<path d="" fill="#FFFFFF" transform="translate(0,0)"/>
</svg>
